# xmcd CD database file
#
# Track frame offsets:
#	150
#	5045
#	54037
#	93852
#	138860
#	181570
#
# Disc length: 3250 seconds
#
# Revision: 0
# Processed by: cddbd v1.5.2PL0 Copyright (c) Steve Scherf et al.
# Submitted via: CDex 1.51
#
DISCID=380cb006
DTITLE=The Gary Campbell Miami Quartet - Jazz Player Afro-Cuban Brazilian Jazz
DYEAR=1995
DGENRE=Jazz
TTITLE0=Tuning Pitch concert A, Bb
TTITLE1=Spanglish
TTITLE2=Blues For Ig
TTITLE3=Neusinha
TTITLE4=Outro Samba
TTITLE5=Strand
EXTD=YEAR: 1995
EXTT0=
EXTT1=
EXTT2=
EXTT3=
EXTT4=
EXTT5=
PLAYORDER=
